<svg xmlns="http://www.w3.org/2000/svg" version="1.1" xmlns:xlink="http://www.w3.org/1999/xlink" viewBox="0 0 13.368585084533368 13.405378933098804"><g transform="matrix(1,0,0,1,3.474248425081649,4.307394091722262)"><g><path d=" M -2.3143219653834404 2.9933587690012278 L -2.1648206142346664 2.9699688479947124 L -2.1225388339536573 3.240221290455957 L -2.003704426630273 3.2216293019635986 L -2.034890987972294 3.0222941670985666 L -1.8920980307853241 2.999953793829523 L -1.860911469443303 3.1992889286945547 L -1.5964090789493188 3.15790676075995 L -1.5670217423001067 3.3457417916904606 L -2.242652848453219 3.4514462423929833 L -2.3143219653834404 2.9933587690012278 M -1.6944293926939422 2.6254187549417316 Q -1.7383599975019008 2.706575535842695 -1.817693090659356 2.7547781600458494 Q -1.8970261838168112 2.8029807842490038 -1.997895537507009 2.8044463510751063 Q -2.0987648911972068 2.8059119179012093 -2.179464907259777 2.7600344718356213 Q -2.260164923322347 2.714157025770034 -2.3059498494407666 2.634303753824979 Q -2.351734775559186 2.554450481879924 -2.353129882441726 2.4584306163479086 Q -2.3545390813129785 2.361440853184257 -2.311086379326482 2.280776067093468 Q -2.267633677339986 2.2001112810026795 -2.1882935381881743 2.152393605615343 Q -2.1089533990363627 2.104675930228007 -2.008084045346165 2.1032103634019044 Q -1.9072146916559671 2.101744796575802 -1.8265217215877532 2.1471372938255713 Q -1.7458287515195392 2.1925297910753407 -1.6995588765853016 2.272376017026039 Q -1.653289001651064 2.3522222429767377 -1.6518938947685238 2.448242108508753 Q -1.6504987878859838 2.544261974040768 -1.6944293926939422 2.6254187549417316 M -1.8776101483389938 2.336564488552419 Q -1.9257481337981779 2.295064449023144 -2.0052797395923725 2.296219992097571 Q -2.08675114064984 2.2974037191494237 -2.133178174275216 2.3402777275781697 Q -2.1796052079005923 2.383151736006915 -2.178548308747153 2.4558940583796542 Q -2.177477317605001 2.5296062783840294 -2.1298313269559914 2.5706284150918424 Q -2.0821853363069818 2.611650551799655 -2.000713935249514 2.610466824747803 Q -1.9202124318236833 2.6092971896846633 -1.8737783522039506 2.566908130071736 Q -1.8273442725842182 2.524519070458808 -1.82841526372637 2.4508068504544327 Q -1.8294721628798094 2.3780645280816937 -1.8776101483389938 2.336564488552419 M -2.3025380372166215 1.7005576820981156 L -1.909755333238379 1.756382769250223 Q -1.8550154453978904 1.7641627936210544 -1.821627600329782 1.742944788844262 Q -1.7882397552616736 1.7217267840674697 -1.7808692058577278 1.669867942955428 Q -1.773498656453782 1.6180091018433862 -1.799996126572686 1.5873000196803224 Q -1.8264935966915898 1.5565909375172589 -1.8802731356225961 1.5489474048020557 L -2.2730558396008385 1.4931223176499484 L -2.246303475097628 1.3048939313914265 L -1.8535207711193857 1.3607190185435338 Q -1.760366926899607 1.3739587091395102 -1.700179184480846 1.4226826928388436 Q -1.6399914420620851 1.4714066765381768 -1.6164820664067654 1.5438202367758633 Q -1.5929726907514457 1.6162337970135499 -1.6047109731355074 1.6988238032290237 Q -1.616449255519569 1.7814138094444978 -1.658794479651639 1.8415283987153623 Q -1.701139703783709 1.901642987986227 -1.7716983583702044 1.9293349884185476 Q -1.8422570129566997 1.9570269888508678 -1.9363712060859608 1.9436508065992626 L -2.3291539100642034 1.8878257194471553 L -2.3025380372166215 1.7005576820981156 M -1.3573256478889424 0.6610499735298258 L -1.4125469870812863 0.8429736336123013 L -1.8517852095389247 0.9742229583048655 L -1.486081525495581 1.0852291197425366 L -1.541302864687925 1.267152779825012 L -2.195671131821319 1.0685250036484688 L -2.140449792628975 0.8866013435659932 L -1.6965706604753552 0.7567607265058868 L -2.0669152542146803 0.644345857435758 L -2.0116939150223363 0.4624221973532825 L -1.3573256478889424 0.6610499735298258 M -1.6817799964424125 -0.16212125965117097 Q -1.6076542404125913 -0.21623945939032918 -1.5187904482843444 -0.22174481574462135 Q -1.4299266561560977 -0.22725017209891352 -1.3399854129704718 -0.18374636911315023 Q -1.2509173857381044 -0.14066493314666617 -1.2002778088546304 -0.06714424573106381 Q -1.1496382319711562 0.006376441684538547 -1.1451745522077121 0.09850767315882974 Q -1.140710872444268 0.19063890463312094 -1.1871712445649862 0.2866926594915563 L -1.3050116429438985 0.5303199104506788 L -1.9206288899911435 0.2325511618588036 L -1.8027884916122312 -0.011076089100318876 Q -1.7559057524722337 -0.10800305991201276 -1.6817799964424125 -0.16212125965117097 M -1.3285947119683463 0.08898600085909969 Q -1.3489398778268125 0.026347169243307933 -1.4240364498070437 -0.00997639441470799 Q -1.5000062377405334 -0.04672232509200325 -1.562179979464996 -0.023997176798101205 Q -1.6243537211894585 -0.001272028504199163 -1.6606772848474742 0.07382454347603207 L -1.6893982421584637 0.13320322829761033 L -1.3732940670788856 0.2861000892767009 L -1.3445731097678961 0.22672140445512262 Q -1.3082495461098802 0.15162483247489134 -1.3285947119683463 0.08898600085909969 M -0.8171752321627099 -0.554885645911922 L -0.9551662203829032 -0.3554746703613911 L -0.8844118018391284 -0.26168834749642145 L -0.9981163761325677 -0.0973737036427839 L -1.4186005912947064 -0.6915027732896749 L -1.2938567379436516 -0.8717702951873549 L -0.5902150149536762 -0.6868325473701535 L -0.7044715531999963 -0.5217202596143138 L -0.8171752321627099 -0.554885645911922 M -0.9638680511841864 -0.598595687636134 L -1.1876801213052095 -0.6638225323255889 L -1.0472146080691833 -0.4781514584036133 L -0.9638680511841864 -0.598595687636134 M -0.6764582281190259 -1.5974469105923672 L -0.5654403020568268 -1.494622971293933 L -0.6893563314677603 -1.3608321373215393 L -0.2986586301334825 -0.9989709663289726 L -0.42784768207254087 -0.85948690537903 L -0.8185453834068187 -1.2213480763715965 L -0.941143157185721 -1.08898054914359 L -1.0521610832479202 -1.191804488442024 L -0.6764582281190259 -1.5974469105923672 M -0.4077473435172403 -1.8353959059664176 L 0.046487112124514784 -1.3241993862131642 L -0.09563277138135426 -1.1979157645028322 L -0.5498672270231093 -1.7091122842560855 L -0.4077473435172403 -1.8353959059664176 M 0.2500268685655185 -1.5397427023147532 Q 0.15820704008968087 -1.5304993142093148 0.07376428516112231 -1.5690564638715423 Q -0.01067846976743625 -1.6076136135337695 -0.06855220175310611 -1.690241729487426 Q -0.126425933738776 -1.772869845441082 -0.13380208051825135 -1.8654053797437897 Q -0.14117822729772675 -1.9579409140464978 -0.10083263159760511 -2.0406756552837937 Q -0.0604870358974835 -2.1234103965210895 0.018168574481477684 -2.17850173754591 Q 0.09761868597537782 -2.2341495567629 0.188763024797661 -2.2435119563297232 Q 0.2799073636199441 -2.2528743558965463 0.36395286799103316 -2.214038967138234 Q 0.44799837236212214 -2.1752035783799215 0.5058721043477921 -2.0925754624262654 Q 0.5637458363334619 -2.009947346472609 0.5715192336704068 -1.9176900512659862 Q 0.5792926310073517 -1.8254327560593633 0.539225274403315 -1.7423007642645978 Q 0.49915791779927837 -1.6591687724698323 0.42050230742031725 -1.604077431445012 Q 0.34184669704135606 -1.5489860904201915 0.2500268685655185 -1.5397427023147532 M 0.3861042271493414 -1.8535498547680547 Q 0.3933975942328628 -1.9166872107594566 0.34776638247493075 -1.9818363021844547 Q 0.30102221433265897 -2.048574395839331 0.23947222351257208 -2.0629008985544814 Q 0.17792223269248525 -2.0772274012696323 0.11833464907206015 -2.03549153685689 Q 0.05795256433669599 -1.9931991942519773 0.05077820871455921 -1.9307373279141298 Q 0.04360385309242243 -1.8682754615762824 0.09034802123469424 -1.8015373679214064 Q 0.13653571118479615 -1.7355937753814692 0.19768845144741348 -1.7209890335702334 Q 0.25884119171003084 -1.7063842917589978 0.31922327644539494 -1.7486766343639102 Q 0.3788108600658201 -1.790412498776653 0.3861042271493414 -1.8535498547680547 M 1.3766774583181896 -2.143243204660064 L 1.20548515835178 -2.060546101734926 L 0.811281847924549 -2.2945553993028045 L 0.9775199017638574 -1.950423939166247 L 0.806327601797448 -1.8677268362411088 L 0.5088711856636602 -2.483495058059061 L 0.6800634856300696 -2.5661921609841993 L 1.0763764160298808 -2.327815712906973 L 0.9080287422179922 -2.676314323552878 L 1.0792210421844017 -2.759011426478016 L 1.3766774583181896 -2.143243204660064 M 1.5533556475407355 -2.256699653910547 Q 1.4632019799325497 -2.2877555413039663 1.4258360761134172 -2.3868337656107195 L 1.6191697902462814 -2.4478380923391736 Q 1.63274472436758 -2.4144872098380703 1.6552825909843651 -2.40430734891741 Q 1.6778204576011506 -2.3941274879967493 1.7055717084336193 -2.402884089919494 Q 1.7305478341828409 -2.410765031649964 1.742795592969879 -2.4283611123128424 Q 1.7550433517569173 -2.445957192975721 1.7480380702187217 -2.468158193641696 Q 1.7389895815652188 -2.49683448616858 1.7072012980042772 -2.504095479781659 Q 1.6754130144433357 -2.5113564733947378 1.6091556829603995 -2.511809711478186 Q 1.5386144112382842 -2.5129454860274327 1.4930245745143202 -2.5204286964001468 Q 1.4474347377903563 -2.5279119067728613 1.4061826250898009 -2.5571067050722274 Q 1.3649305123892455 -2.586301503371594 1.3453741014284493 -2.64827929689744 Q 1.3255258037368947 -2.711182132117702 1.3428207149052553 -2.7659708031426367 Q 1.3601156260736158 -2.8207594741675717 1.4083209594695991 -2.861398720373451 Q 1.4565262928655822 -2.9020379665793308 1.5268294616411693 -2.9242213581169505 Q 1.6406095900542903 -2.9601234260002034 1.725383641612432 -2.9283872032820297 Q 1.8101576931705736 -2.896650980563856 1.8451391216414996 -2.8019060779984226 L 1.6481052407309733 -2.7397342043469357 Q 1.6378398236522966 -2.7690436518374772 1.6160563646134771 -2.778444414429101 Q 1.5942729055746578 -2.7878451770207255 1.567446696436605 -2.779380461828739 Q 1.5470957791594615 -2.7729589537520596 1.5379397229374987 -2.7568469974940424 Q 1.5287836667155361 -2.740735041236025 1.5357889482537317 -2.7185340405700504 Q 1.541626682868895 -2.700033206681738 1.5601971867283302 -2.691144346439463 Q 1.5787676905877654 -2.682255486197188 1.6031084602322854 -2.6792559432132617 Q 1.627449229876805 -2.676256400229335 1.6737462938176382 -2.674590636002802 Q 1.7424374821509223 -2.672871087992039 1.78924424730006 -2.664754722655667 Q 1.836051012449198 -2.6566383573192955 1.877011238418995 -2.628368600714345 Q 1.9179714643887922 -2.6000988441093944 1.9360684416957978 -2.542746259055626 Q 1.9544573057335615 -2.484468632307442 1.939912828897377 -2.429022115567779 Q 1.9253683520611928 -2.3735755988281166 1.87879308643545 -2.3293821292099537 Q 1.8322178208097073 -2.2851886595917907 1.7572894435620423 -2.2615458344003803 Q 1.6435093151489213 -2.2256437665171274 1.5533556475407355 -2.256699653910547 M 2.472745002109049 -2.476099425834353 Q 2.3876026619331587 -2.5116958165835985 2.331709799901993 -2.5858120808173353 Q 2.275816937870828 -2.659928345051072 2.2642737463621274 -2.7601457543659884 Q 2.2527305548534273 -2.860363163680905 2.290309699587136 -2.9452456738410255 Q 2.327888844320844 -3.0301281840011463 2.4027644035875544 -3.0836674698060333 Q 2.4776399628542642 -3.1372067556109204 2.573039227490579 -3.1481949859893947 Q 2.6694021210626135 -3.159294208593914 2.7540071506576216 -3.1241241361995065 Q 2.838612180252629 -3.088954063805099 2.8940232278159344 -3.0147823034583396 Q 2.9494342753792395 -2.94061054311158 2.9609774668879396 -2.8403931337966637 Q 2.97252065839664 -2.7401757244817473 2.935423328130792 -2.6553487104346494 Q 2.8983259978649434 -2.5705216963875515 2.823505934711256 -2.516500596114804 Q 2.748685871557569 -2.4624794958420564 2.653286606921254 -2.4514912654635825 Q 2.5578873422849395 -2.4405030350851082 2.472745002109049 -2.476099425834353 M 2.7418374315876757 -2.6872421284013384 Q 2.7783166712152965 -2.7392881080846014 2.7692153086795903 -2.81830568081367 Q 2.7598919616917943 -2.8992505114141793 2.712590980024767 -2.9411583529636505 Q 2.66528999835774 -2.9830661945131216 2.5930178281787137 -2.974741777559732 Q 2.5197820290639674 -2.9663063683802973 2.4837291077911843 -2.914797699277917 Q 2.447676186518401 -2.8632890301755367 2.456999533506197 -2.7823441995750273 Q 2.4662118882679485 -2.7023629979102384 2.5130310554671156 -2.660399660247745 Q 2.5598502226662823 -2.618436322585251 2.633086021781029 -2.6268717317646857 Q 2.705358191960055 -2.6351961487180753 2.7418374315876757 -2.6872421284013384 M 3.599181953884032 -3.165740130471311 L 3.595249541593436 -3.0144712356727545 L 3.321801924072968 -3.02157982712114 L 3.318676160457366 -2.9013404492043384 L 3.520368020188775 -2.896097232816877 L 3.5166120622958337 -2.7516160448362044 L 3.3149202025644247 -2.756859261223666 L 3.307962857742601 -2.4892296781185275 L 3.11790706684185 -2.4941704012528665 L 3.135678545462814 -3.1777894450540356 L 3.599181953884032 -3.165740130471311 M 4.476754701897873 -2.6830662282639484 Q 4.438768208761463 -2.638690557123137 4.376206960885954 -2.6199630502346287 Q 4.313645713010445 -2.6012355433461205 4.231823601253148 -2.617484802639283 L 4.139535870550151 -2.635812455562966 L 4.094566990180701 -2.4093745183741677 L 3.908088688966397 -2.4464077139725378 L 4.0412948261952275 -3.117158746401541 L 4.320060858112529 -3.061797897879488 Q 4.400931549965672 -3.0457375834618277 4.451872687997815 -3.005952766244827 Q 4.502813826029958 -2.966167949027826 4.521342344752997 -2.910074347842575 Q 4.539870863476034 -2.853980746657324 4.526833667066404 -2.7883327732706555 Q 4.514741195034284 -2.7274418994047602 4.476754701897873 -2.6830662282639484 M 4.3365496862354815 -2.826121748371033 Q 4.3510984416491265 -2.8993810809909384 4.272130589604294 -2.915063505657595 L 4.197919837080233 -2.929801205946742 L 4.169011271128445 -2.784233960611086 L 4.243222023652505 -2.769496260321939 Q 4.322189875697338 -2.753813835655282 4.3365496862354815 -2.826121748371033 M 4.869768332734982 -2.198843345318623 L 4.8234804125626 -2.481516139280326 L 4.804220321503681 -2.4881483178365897 L 4.722107634616607 -2.249690047583312 L 4.5423467847333665 -2.3115903807751073 L 4.764998493407935 -2.958179152038802 L 5.048396976132023 -2.8605913818537783 Q 5.126354487560979 -2.8337468496022344 5.1711495401831895 -2.7880577438375838 Q 5.2159445928054 -2.7423686380729335 5.227194380239684 -2.6856610168242563 Q 5.238444167673968 -2.628953395575579 5.218231813978688 -2.5702559752055416 Q 5.195492916071498 -2.5042213772892494 5.142053519493229 -2.466711667301695 Q 5.08861412291496 -2.4292019573141403 5.011647121616298 -2.432109741881803 L 5.070623568063704 -2.1296791975175866 L 4.869768332734982 -2.198843345318623 M 4.846539937053174 -2.6110460417363557 L 4.935503214801512 -2.5804116931669467 Q 4.972189102532786 -2.567778972107397 4.996532588901709 -2.5788884082499766 Q 5.020876075270632 -2.5899978443925566 5.032245524224226 -2.6230151433507025 Q 5.042983337124844 -2.654198147922285 5.030340271179097 -2.6785567877343004 Q 5.01769720523335 -2.7029154275463156 4.9819284646953585 -2.7152323305793766 L 4.89296518694702 -2.7458666791487856 L 4.846539937053174 -2.6110460417363557 M 5.328703426634323 -2.050511606925492 Q 5.278294863041845 -2.1278116576469697 5.273729928154678 -2.2205283984194746 Q 5.269164993267512 -2.31324513919198 5.315951704969715 -2.4026195091651155 Q 5.362738416671918 -2.491993879138251 5.441532269163541 -2.541073013803894 Q 5.520326121655165 -2.590152148469537 5.61234786632893 -2.592343724887627 Q 5.704369611002695 -2.5945353013057173 5.789447136265585 -2.5499979507430433 Q 5.8753840304705225 -2.505010727952463 5.9255878457059294 -2.4283652978159633 Q 5.975791660941336 -2.3517198676794635 5.979926911357478 -2.259228063020911 Q 5.98406216177362 -2.166736258362359 5.937275450071417 -2.0773618883892233 Q 5.890488738369214 -1.9879875184160873 5.812124570348615 -1.9386834476364918 Q 5.733760402328017 -1.8893793768568963 5.641513721540298 -1.886758115967781 Q 5.54926704075258 -1.8841368550786664 5.464189515489692 -1.9286742056413404 Q 5.379111990226803 -1.9732115562040144 5.328703426634323 -2.050511606925492 M 5.669945219768783 -2.07387857224791 Q 5.729371507915315 -2.096418208494428 5.766261030603591 -2.166886461742477 Q 5.804050297747677 -2.2390734528746252 5.788486551821961 -2.3003222884779224 Q 5.772922805896244 -2.3615711240812196 5.70847013524254 -2.3953115411741543 Q 5.643158095646787 -2.429501830494995 5.5843864280852324 -2.4071669426055493 Q 5.525614760523678 -2.384832054716104 5.487825493379591 -2.3126450635839557 Q 5.45048609846341 -2.241317441393857 5.465620159918101 -2.1802935419045126 Q 5.480754221372794 -2.1192696424151682 5.546066260968547 -2.085079353094328 Q 5.61051893162225 -2.0513389360013927 5.669945219768783 -2.07387857224791 M 6.49989148837816 -1.8127767781013653 Q 6.502962597432887 -1.8444019893919477 6.488770641558712 -1.873196244261026 Q 6.474578685684535 -1.9019904991301042 6.44351448951656 -1.9252382025959858 Q 6.386045726605806 -1.9682464540078666 6.325142774018275 -1.9556701035387956 Q 6.264239821430744 -1.9430937530697248 6.217163221912333 -1.8801887558295751 Q 6.164274696527453 -1.8095177095474317 6.17200357180279 -1.746184713905521 Q 6.179732447078128 -1.6828517182636102 6.247297073743473 -1.632287963225318 Q 6.327287378876009 -1.572425126800673 6.415508905218957 -1.6190769090787454 L 6.262517739091679 -1.7335718486482121 L 6.344465893808912 -1.8430731401403242 L 6.628703288745884 -1.630356653427508 L 6.518276697282946 -1.4828017216296263 Q 6.467867999634127 -1.452679276487343 6.4048306446515495 -1.4404887062873668 Q 6.341793289668972 -1.4282981360873905 6.270676589704033 -1.4433561774971086 Q 6.199559889739094 -1.458414218906827 6.1319952630737475 -1.5089779739451195 Q 6.0496751432286135 -1.5705843881297055 6.012826106228805 -1.6532871070825108 Q 5.975977069228995 -1.7359898260353162 5.988785346803857 -1.8251461958333586 Q 6.001593624378718 -1.9143025656314012 6.062618845976657 -1.9958460805723357 Q 6.12306287498795 -2.076612990609071 6.204988989036555 -2.1140432201955273 Q 6.286915103085161 -2.1514734497819834 6.376264363017751 -2.1397323734046445 Q 6.465613622950341 -2.127991297027306 6.547933742795475 -2.06638488284272 Q 6.651222195053992 -1.989086268818664 6.681590496173928 -1.8888197999116114 Q 6.711958797293863 -1.788553331004559 6.663755123164228 -1.6901451423188403 L 6.49989148837816 -1.8127767781013653 M 6.723944261611286 -0.9911749346646646 L 6.807542767556683 -1.2651416658633583 L 6.793207002133915 -1.2796131111865927 L 6.614036726703395 -1.1021226821427939 L 6.480236249424224 -1.237189505159647 L 6.966063342418517 -1.7184616300668707 L 7.1770038907821085 -1.5055246488821377 Q 7.235029607969505 -1.4469497511452372 7.254977347155596 -1.3861535438098804 Q 7.274925086341687 -1.3253573364745237 7.259915254367234 -1.269527085095019 Q 7.244905422392781 -1.2136968337155145 7.200801969979115 -1.170006881950887 Q 7.1511855860137405 -1.1208556862156813 7.086663847712996 -1.1108710612026755 Q 7.022142109412253 -1.1008864361896697 6.954410613480596 -1.1375582095154855 L 6.87344581530587 -0.8402584334366499 L 6.723944261611286 -0.9911749346646646 M 6.885548605625028 -1.371088947693781 L 6.951766188768292 -1.304244652629318 Q 6.979072408621184 -1.2766799948707765 7.005818730982937 -1.2758681204216296 Q 7.03256505334469 -1.2750562459724826 7.057373245327378 -1.2996318438400856 Q 7.080803204422138 -1.3228421307150438 7.08024653740482 -1.3502807999945814 Q 7.079689870387502 -1.3777194692741186 7.0530663060309315 -1.4045950105886966 L 6.986848722887668 -1.4714393056531596 L 6.885548605625028 -1.371088947693781 M 7.294828194026995 -0.47140479329631135 L 7.151326101337224 -0.6668872717787987 L 7.039591843146434 -0.6305896458708418 L 6.921346118770062 -0.7916672081404115 L 7.6201268593757625 -0.9953871216455707 L 7.749852751167316 -0.8186709610974021 L 7.345538304761027 -0.21382100174617868 L 7.226718572013897 -0.3756804939296782 L 7.294828194026995 -0.47140479329631135 M 7.383991270949292 -0.595820614692742 L 7.518646655147631 -0.7861211966844899 L 7.297316006964671 -0.7138920316961643 L 7.383991270949292 -0.595820614692742 M 8.364417020311112 0.2786542303248226 L 7.751196710240776 0.5813284344077603 L 7.667048988254598 0.4108444900477801 L 8.005407428846599 0.2438370214119464 L 7.6099487483354045 0.2951589563749364 L 7.539539429938807 0.15250912537985095 L 7.8229777536274 -0.13234166830800256 L 7.48200986490744 0.03595377566435426 L 7.397862142921261 -0.13453016869562595 L 8.011082452991598 -0.4372043727785636 L 8.112832504576925 -0.23105797066981204 L 7.7904473018967355 0.11953037025562785 L 8.26309629383796 0.07337764425872406 L 8.364417020311112 0.2786542303248226 M 8.671032814247456 1.3046696325930813 L 8.011202408477669 1.4843211233235505 L 7.961256745806503 1.3008789112230141 L 8.325333381046853 1.2017520603093228 L 7.927365046136783 1.1764002672976503 L 7.885573777371114 1.0229078041114874 L 8.21831167709292 0.7976019051902177 L 7.851427252891848 0.8974932305325494 L 7.801481590220682 0.7140510184320132 L 8.461311995990467 0.5343995277015441 L 8.52170547585305 0.756214855598621 L 8.138153685805861 1.0385841670536664 L 8.61089415919442 1.0837902343495784 L 8.671032814247456 1.3046696325930813 M 8.723058748490857 1.7216423368406022 L 8.045487866730028 1.8141005581616567 L 8.019783169738643 1.6257262420976533 L 8.69735405149947 1.5332680207765987 L 8.723058748490857 1.7216423368406022 M 8.083195489742028 2.5859554001540817 L 8.078947698912733 2.3958828595989803 L 8.455375798771223 2.1342371316825344 L 8.073291201941071 2.142776058145504 L 8.069043411111778 1.9527035175904028 L 8.752722702394156 1.937424474046257 L 8.75697049322345 2.127497014601358 L 8.375693604065086 2.389251104528755 L 8.762626990195113 2.3806038160548346 L 8.766874781024407 2.5706763566099355 L 8.083195489742028 2.5859554001540817 M 8.470472911229267 3.221112500853616 Q 8.499613599886471 3.2084473532198956 8.517900035393236 3.182063134424242 Q 8.5361864709 3.1556789156285885 8.541434097122863 3.1172354191821787 Q 8.55114220563516 3.04611495075632 8.510585612761258 2.9989715843145746 Q 8.470029019887358 2.951828217872829 8.392180939583378 2.941201774771532 Q 8.304721985167797 2.9292634251145198 8.253101158309178 2.9667613461826616 Q 8.20148033145056 3.0042592672508035 8.190066744415834 3.0878738720217447 Q 8.176554106891963 3.18686587537125 8.260162847284716 3.2413544524304565 L 8.286007406432315 3.052020232431888 L 8.42152073140591 3.070518114867479 L 8.373504951466717 3.4222761073521286 L 8.19089834334627 3.3973498827935313 Q 8.140094833399441 3.367898195624838 8.098839534425524 3.3187014637052004 Q 8.057584235451607 3.2695047317855623 8.036230946578927 3.2000182821761616 Q 8.014877657706245 3.1305318325667604 8.026291244740971 3.046917227795819 Q 8.040197454231558 2.945041962212833 8.094618969868431 2.8726825130317795 Q 8.149040485505305 2.8003230638507257 8.233207093687799 2.7682467124831773 Q 8.317373701870295 2.736170361115629 8.41828788004212 2.7499453799506437 Q 8.518240970802786 2.763589208130086 8.590731610639411 2.8170496363558 Q 8.663222250476036 2.8705100645815134 8.69632528458253 2.9543273197139994 Q 8.729428318689024 3.038144574846486 8.715522109198439 3.1400198404294715 Q 8.69807375200742 3.267844466113784 8.62515057065844 3.3430628689281456 Q 8.552227389309456 3.4182812717425066 8.442791682903666 3.423901944608428 L 8.470472911229267 3.221112500853616" fill="#173054" fill-rule="nonzero"></path></g><g><path d=" M -0.539844244645148 6.1060222457797435 Q -0.5503143352919889 6.165314970475501 -0.5955969412605557 6.206186544909275 Q -0.6609226679037341 6.265148816223572 -0.7403596520850175 6.2540013705886945 Q -0.8197966362663007 6.242853924953818 -0.8934994754091716 6.161196766649844 L -1.1125979154066152 5.918452305146216 L -0.5914767778667149 5.4480941862526215 L -0.3797486217835586 5.682672931925853 Q -0.3080558600718568 5.7621030768215356 -0.30389385087868415 5.839845778597818 Q -0.29973184168551126 5.9175884803741 -0.36208821711763606 5.973870648446838 Q -0.4081131608889662 6.0154122486910016 -0.4603248496399317 6.018757328327171 Q -0.5125365383908971 6.02210240796334 -0.560595336996157 5.992736579580352 Q -0.5293741539983072 6.046729521083986 -0.539844244645148 6.1060222457797435 M -0.6877263002748732 5.765321280675846 L -0.6126834095112228 5.848463114585346 Q -0.584542325474854 5.879641302301408 -0.5557334953899622 5.883948425371375 Q -0.5269246653050703 5.88825554844134 -0.5002005044055884 5.86413461926731 Q -0.47347634350610623 5.840013690093279 -0.47444750598737095 5.810580599133699 Q -0.47541866846863545 5.781147508174117 -0.5035597525050044 5.749969320458055 L -0.5786026432686547 5.666827486548555 L -0.6877263002748732 5.765321280675846 M -0.7521253293947123 6.082763031314325 Q -0.7219041356966674 6.0871424663766645 -0.694437636994422 6.062351511392245 Q -0.6669711382921766 6.037560556407825 -0.667797676788694 6.005302738221937 Q -0.6686242152852112 5.973044920036049 -0.6974353251319698 5.941124394517224 L -0.780518525620297 5.8490745069745635 L -0.8955808850486225 5.952928507584972 L -0.8111576329395158 6.046463070733159 Q -0.7823465230927572 6.078383596251985 -0.7521253293947123 6.082763031314325 M -0.4290465148629081 6.561676888293902 Q -0.46399010217943504 6.473920431520328 -0.44952303543765754 6.3793201990687685 Q -0.43505596869588004 6.28471996661721 -0.37003338193494584 6.2048384092280555 Q -0.30501079517401164 6.124956851838901 -0.21563110927332618 6.091979257198072 Q -0.12625142337264078 6.059001662557243 -0.03322940904634741 6.075407602051185 Q 0.05979260527994601 6.091813541545126 0.13657196626563817 6.154310979305636 Q 0.21335132725133032 6.2168084170661455 0.24829491456785724 6.30456487383972 Q 0.28323850188438415 6.392321330613295 0.26831152966679417 6.485902501264315 Q 0.2533845574492042 6.579483671915334 0.18836197068827 6.6593652293044885 Q 0.12333938392733579 6.739246786693643 0.03403182895203005 6.772927799509958 Q -0.055275726023275684 6.806608812326273 -0.1479099657991363 6.790518516457384 Q -0.24054420557499684 6.774428220588495 -0.317323566560689 6.711930782827986 Q -0.3941029275463812 6.649433345067476 -0.4290465148629081 6.561676888293902 M -0.07917931547176349 6.632422508583762 Q -0.0046619998721070255 6.62087176506565 0.053416427137659483 6.549521247786017 Q 0.11212614139753208 6.477395181405519 0.10799735418471224 6.402472200177118 Q 0.10386856697189228 6.327549218948717 0.03872244249918377 6.2745210899398005 Q -0.027199231074390373 6.220861673680777 -0.10108525942394064 6.231636868098023 Q -0.17497128777349097 6.242412062515268 -0.2343122892834698 6.315313677996633 Q -0.2930220035433424 6.387439744377131 -0.28889321633052245 6.462362725605532 Q -0.28476442911770256 6.5372857068339325 -0.21884275554412846 6.590945123092956 Q -0.15369663107141995 6.6439732521018735 -0.07917931547176349 6.632422508583762 M 0.3140770321750556 7.10644368705985 Q 0.26508185644042 7.025686503139581 0.26368149968176136 6.929996696989979 Q 0.2622811429231027 6.834306890840376 0.3131758194600505 6.744759518460169 Q 0.36407049599699837 6.655212146079962 0.4467540982928213 6.6078869740106905 Q 0.5294377005886441 6.560561801941419 0.6238921990553109 6.561334925094901 Q 0.7183466975219777 6.562108048248383 0.8044165020427592 6.611026232492634 Q 0.8904863065635406 6.659944416736885 0.9394814822981762 6.740701600657154 Q 0.9884766580328119 6.821458784577423 0.9892546843632013 6.9162197716714235 Q 0.9900327106935906 7.010980758765423 0.9391380341566428 7.10052813114563 Q 0.8882433576196949 7.190075503525837 0.805747389769713 7.2380824331141245 Q 0.7232514219197312 7.286089362702411 0.6292316194354927 7.285563301085516 Q 0.5352118169512541 7.285037239468621 0.44914201243047275 7.23611905522437 Q 0.3630722079096913 7.187200870980119 0.3140770321750556 7.10644368705985 M 0.6708293232165967 7.118267512016755 Q 0.7424045095396019 7.0945347771800975 0.787863832271633 7.014550716413311 Q 0.8338172780768384 6.933697263681667 0.8173368144127622 6.860492794436839 Q 0.800856350748686 6.7872883251920095 0.7278274257007502 6.745781987045373 Q 0.6539291086879582 6.703781525825561 0.5828480454381272 6.726644868697362 Q 0.5117669821882963 6.749508211569164 0.46531941330991666 6.831231056265663 Q 0.41936596750471133 6.912084508997307 0.4358464311687875 6.985288978242135 Q 0.4523268948328637 7.058493447486963 0.5262252118456558 7.100493908706775 Q 0.5992541368935916 7.142000246853412 0.6708293232165967 7.118267512016755 M 1.6959671695347363 7.023713877209315 L 1.6463660455762312 7.151419509434573 L 1.472984676277705 7.084077837490909 L 1.2684252964488343 7.6107470506826695 L 1.1090262956421246 7.5488361587344635 L 1.3135856754709954 7.022166945542703 L 1.140204306172469 6.954825273599039 L 1.1898054301309737 6.8271196413737805 L 1.6959671695347363 7.023713877209315 M 1.7809953068823479 7.2239154838489075 Q 1.8431533999134504 7.154607320760157 1.9318171061118474 7.128353802840374 Q 2.0204808123102445 7.102100284920593 2.119873861636102 7.125013637920701 Q 2.241679069143281 7.153093727381619 2.313578089653028 7.237399900641583 Q 2.3854771101627747 7.321706073901547 2.3891013183761407 7.439531644618714 L 2.2059062862853436 7.397299190069494 Q 2.195327202914381 7.349706301997532 2.162977935462979 7.318645476262249 Q 2.1306286680115765 7.2875846505269655 2.0828810266687623 7.276577255458286 Q 2.005900135524225 7.258830638918986 1.9457972548186075 7.3014175351534645 Q 1.88569437411299 7.344004431387944 1.8650274282697543 7.433653064113227 Q 1.844360482426519 7.5233016968385105 1.8797528844065292 7.5879033832103495 Q 1.9151452863865397 7.652505069582188 1.9921261775310766 7.670251686121487 Q 2.0398738188738905 7.681259081190167 2.0825565592469104 7.667495590562809 Q 2.1252392996199303 7.653732099935451 2.155586765971379 7.615574121922358 L 2.3387817980621763 7.657806576471578 Q 2.2839395066720964 7.762153704247504 2.182500232049464 7.805986609285093 Q 2.0810609574268324 7.849819514322681 1.9592557499196535 7.8217394248617635 Q 1.8598627005937958 7.798826071861654 1.7916412995229467 7.736405398716211 Q 1.7234198984520976 7.673984725570767 1.697765921720188 7.584946118900184 Q 1.6721119449882782 7.495907512229603 1.6954745794197617 7.39456557958363 Q 1.718837213851245 7.2932236469376575 1.7809953068823479 7.2239154838489075 M 2.9702452447134617 7.830701449170569 L 2.70884517201111 7.812981347838881 L 2.6585547307186363 7.933856785850945 L 2.4799646047120683 7.9217503044067765 L 2.7808620459381834 7.238536772731959 L 2.978408665766678 7.251928299692548 L 3.1843480067268017 7.969499890437966 L 3.003762460317925 7.957258141044701 L 2.9702452447134617 7.830701449170569 M 2.9352736805030775 7.696027807738108 L 2.865854824461624 7.433732130255813 L 2.762669815703433 7.68432713014123 L 2.9352736805030775 7.696027807738108 M 4.126845612612808 7.185759685446932 L 4.201973946229566 7.8837279751907925 L 4.0319560294970875 7.9020284667128236 L 3.986900433410684 7.4834463442311066 L 3.8758577082865657 7.918830672379249 L 3.7386502667129866 7.933599490098783 L 3.5363950721748076 7.530932336878752 L 3.581557688679468 7.950508716183466 L 3.4115397719469893 7.968809207705497 L 3.3364114383302317 7.270840917961637 L 3.537251316575616 7.249222793473624 L 3.7851318339791553 7.711348587053417 L 3.9269999911904208 7.207270789516688 L 4.126845612612808 7.185759685446932 M 4.850604898497256 7.335484058166632 Q 4.837119222997117 7.391630176076109 4.789513401292347 7.437002918331936 Q 4.741907579587578 7.482375660587763 4.659035540392798 7.5053588091905725 L 4.556890933943418 7.533686876073105 L 4.624236904267929 7.7765212234810654 L 4.4594564542410975 7.822220274772698 L 4.271849822622818 7.145753164136236 L 4.538774879099029 7.071726045962071 Q 4.619719661568349 7.0492773891872345 4.683360238112288 7.061722348695207 Q 4.747000814656226 7.07416730820318 4.78857557878869 7.115562223196813 Q 4.830150342921154 7.156957138190444 4.84778857324424 7.220556610130624 Q 4.864090573997395 7.279337940257155 4.850604898497256 7.335484058166632 M 4.6743611418328 7.3361071446773325 Q 4.6913415665166385 7.307529790398875 4.6801172381292195 7.267057399164215 Q 4.6688929097418015 7.226585007929555 4.6396191730146 7.210835457522433 Q 4.610345436287398 7.19508590711531 4.563127646513628 7.208180956900631 L 4.473510208779738 7.233034826901344 L 4.520545489641301 7.402633418741824 L 4.610162927375191 7.377779548741112 Q 4.657380717148961 7.364684498955791 4.6743611418328 7.3361071446773325 M 5.718857921463192 6.9575385585964 Q 5.715733266942194 7.0151969190840555 5.677103900050155 7.06842071088359 Q 5.638474533158116 7.121644502683125 5.561115478592787 7.159215457911311 L 5.465765946221566 7.205523844587913 L 5.5758575824716 7.432203864942134 L 5.422038997231235 7.506908903826086 L 5.115355153391857 6.875443132839326 L 5.364523271003441 6.7544297072787725 Q 5.440083277788181 6.7177324951954285 5.504924939025466 6.718480136813565 Q 5.569766600262752 6.719227778431702 5.618133243274752 6.752434221236521 Q 5.666499886286752 6.78564066404134 5.695333410066524 6.8450092408007785 Q 5.72198257598419 6.899880198108745 5.718857921463192 6.9575385585964 M 5.5456243319955565 6.989978865009235 Q 5.557164859196948 6.958804897794362 5.538816253155275 6.921024894401992 Q 5.520467647113603 6.883244891009622 5.488831027580856 6.873040759270946 Q 5.45719440804811 6.86283662753227 5.413117737423678 6.884243334580888 L 5.329462015626286 6.924872390816019 L 5.4063514123723415 7.083188595507857 L 5.490007134169733 7.042559539272725 Q 5.534083804794165 7.021152832224107 5.5456243319955565 6.989978865009235 M 6.383117852363197 6.968705928447504 L 6.114629264400263 6.829225183777603 L 6.080517434964441 6.851971240414774 L 6.2275346303022525 7.0724501379877704 L 6.085263341679678 7.167317837620849 L 5.695806469501777 6.583256758012383 L 5.934589275552531 6.424034361552187 Q 6.003644930264073 6.377987466408646 6.068405361104892 6.369660606417533 Q 6.13316579194571 6.3613337464264195 6.185310155697319 6.387260862134494 Q 6.237454519448928 6.413187977842568 6.271850995339284 6.464771719916251 Q 6.310685726183234 6.523011428709117 6.30833489331322 6.590685083736885 Q 6.305984060443206 6.658358738764652 6.254680363762636 6.720212847010654 L 6.54369304946353 6.861633027692041 L 6.383117852363197 6.968705928447504 M 6.013388828791327 6.751299743787104 L 6.101580387820525 6.692492865651979 Q 6.140684192295736 6.666418117799613 6.147476111541758 6.634244839555773 Q 6.1542680307877795 6.602071561311933 6.1309671922814095 6.5671277360362135 Q 6.108775917513438 6.533847902440289 6.076464032284249 6.527749372048817 Q 6.04415214705506 6.521650841657344 6.005048342579849 6.54772558950971 L 5.916856783550651 6.6065324676448345 L 6.013388828791327 6.751299743787104 M 6.470971365252539 6.187867638165206 L 6.564128883711181 6.295038887829599 L 6.736961391972773 6.14480598834348 L 6.823558521807567 6.244429966904747 L 6.650726013545975 6.394662866390867 L 6.751755998353234 6.510890841379012 L 6.947230319924206 6.340976776021348 L 7.0371076440709235 6.444374390134179 L 6.7125749866364925 6.726471100959643 L 6.252035705242362 6.1966526695201765 L 6.576568362676793 5.914555958694711 L 6.6664456868235105 6.017953572807542 L 6.470971365252539 6.187867638165206 M 7.264960289793299 5.6674825655958685 Q 7.283883703741273 5.722036707551853 7.268264041813038 5.78591961732628 Q 7.252644379884802 5.8498025271007075 7.195251845513319 5.913850142188377 L 7.1245122101252125 5.99279255148248 L 7.312186617126288 6.16096602429194 L 7.198068903434154 6.288316514756956 L 6.675261626788299 5.819833269073459 L 6.860118975868541 5.6135403693143395 Q 6.916176800138361 5.550982233647314 6.9764808446859 5.527140626922758 Q 7.03678488923344 5.503299020198202 7.094119910933952 5.515736676191263 Q 7.151454932634465 5.5281743321843235 7.200607753515699 5.572219765539183 Q 7.246036875845325 5.612928423639885 7.264960289793299 5.6674825655958685 M 7.1168795346220355 5.763056306486913 Q 7.115767042504585 5.729833387270074 7.084487974671072 5.701804475135163 Q 7.053208906837559 5.6737755630002535 7.020063372280211 5.676300149878857 Q 6.986917837722862 5.678824736757462 6.954217440232133 5.715316982563226 L 6.892153420504833 5.784577775623148 L 7.023227609521458 5.902032264569438 L 7.085291629248759 5.832771471509516 Q 7.117992026739486 5.796279225703752 7.1168795346220355 5.763056306486913" fill="#173054" fill-rule="nonzero"></path></g><g clip-path="url(#SvgjsClipPath1001)"><g clip-path="url(#SvgjsClipPath10002dcb6d8a-a99c-4175-a5f5-f473b7a648fd)"><path d=" M 0.8401376358548973 0.9095735084930556 C 0.8401376358548973 1.2358321403756807 0.8409151297008762 1.7003513921832365 0.8471795086884776 1.9651435820137593 C 0.8507115521602101 2.1132006243980244 0.8083936728290738 2.256948129464577 0.7285117336822146 2.377970600118662 C 0.8084158869389588 2.4989930707727463 0.8507115521602101 2.6431404298172314 0.8471795086884776 2.791175258091611 C 0.8409151297008762 3.0559452338122495 0.8401376358548973 3.520086845751758 0.8401376358548973 3.8463454776343835 C 0.8401376358548973 4.063332902992148 0.9086903789603498 4.144414404072802 0.9674244854965833 4.147924233434651 L 1.0939338412922905 4.147924233434651 L 1.0939338412922905 4.752281306968981 L 0.9775985478239643 4.755813350440713 C 0.9748662123080956 4.755813350440713 0.9709343148584308 4.7562132044186445 0.9662471376726726 4.7562132044186445 C 0.9004489441929737 4.7562132044186445 0.6791519815174981 4.741329750795621 0.4872220721101392 4.554886726529884 C 0.3180171971152488 4.391168736676616 0.23184866487090336 4.152633624730294 0.23184866487090336 3.8463454776343835 C 0.23184866487090336 3.615651946477506 0.23420336051872506 3.3853582692985604 0.23615820218861486 3.1820769497399097 C 0.23773540399045773 3.0262005406760855 0.23891275181436863 2.8875400667732234 0.23891275181436863 2.7806013417862987 C 0.23891275181436863 2.693255461718042 0.10847149856899693 2.3779706001186627 0 2.3779706001186627 C 0.05404692935047504 2.3779706001186627 0.11398059782050449 2.299243794685829 0.16018594638153533 2.209543218969751 C 0.2063912949425662 2.1198426432536728 0.23891275181436863 2.0191905113642346 0.23891275181436863 1.9757174983190726 C 0.23891275181436863 1.8688009874420333 0.23773540399045773 1.7301405135391708 0.23615820218861486 1.5738642504974147 C 0.23420336051872506 1.3705829309387643 0.23184866487090336 1.1402892537598184 0.23184866487090336 0.9095957226029409 C 0.23184866487090336 0.6033075755070305 0.31801719711524884 0.3651723175386408 0.48762192608807114 0.20105447370744087 C 0.6928580873166116 0.0017050515984547842 0.9321706931089122 -0.001049498027298993 0.9775985478239643 0.00012784979661204163 L 1.0939338412922905 0.0036598932683445753 L 1.0939338412922905 0.6080169668026741 L 0.9670246315186515 0.6080169668026741 C 0.9082683108725329 0.6123265041203858 0.8401154217450124 0.6937856450690877 0.8401154217450124 0.9095957226029409 Z" fill="#003049" transform="matrix(1,0,0,1,0,0)" fill-rule="nonzero"></path></g><g clip-path="url(#SvgjsClipPath10002dcb6d8a-a99c-4175-a5f5-f473b7a648fd)"><path d=" M 5.578007420371138 0.9095735084930556 C 5.578007420371138 1.2358321403756807 5.57722992652516 1.7003513921832365 5.570965547537559 1.9651435820137593 C 5.567433504065825 2.1132006243980244 5.609751383396962 2.256948129464577 5.689633322543822 2.377970600118662 C 5.609729169287077 2.4989930707727463 5.567433504065825 2.6431404298172314 5.570965547537559 2.791175258091611 C 5.57722992652516 3.0559452338122495 5.578007420371138 3.520086845751758 5.578007420371138 3.8463454776343835 C 5.578007420371138 4.063332902992148 5.509454677265686 4.144414404072802 5.450720570729452 4.147924233434651 L 5.324211214933746 4.147924233434651 C 5.324211214933746 4.147924233434651 5.324211214933746 4.752281306968981 5.324211214933746 4.752281306968981 L 5.440546508402072 4.755813350440713 C 5.44327884391794 4.755813350440713 5.447210741367605 4.7562132044186445 5.451897918553363 4.7562132044186445 C 5.517696112033062 4.7562132044186445 5.738993074708539 4.741329750795621 5.930922984115897 4.554886726529884 C 6.100127859110787 4.391168736676616 6.186296391355133 4.152633624730294 6.186296391355133 3.8463454776343835 C 6.186296391355133 3.615651946477506 6.18394169570731 3.3853582692985604 6.1819868540374205 3.1820769497399097 C 6.180409652235578 3.0262005406760855 6.179232304411667 2.8875400667732234 6.179232304411667 2.7806013417862987 C 6.179232304411667 2.693255461718042 6.309673557657039 2.3779706001186627 6.418145056226036 2.3779706001186627 C 6.364098126875562 2.3779706001186627 6.304164458405532 2.299243794685829 6.257959109844501 2.209543218969751 C 6.21175376128347 2.1198426432536728 6.179232304411667 2.0191905113642346 6.179232304411667 1.9757174983190726 C 6.179232304411667 1.8688009874420333 6.1804096522355785 1.7301405135391708 6.1819868540374205 1.5738642504974147 C 6.18394169570731 1.3705829309387643 6.186296391355133 1.1402892537598184 6.186296391355133 0.9095957226029409 C 6.186296391355133 0.6033075755070305 6.100127859110787 0.3651723175386408 5.930523130137965 0.20105447370744087 C 5.725286968909424 0.0017050515984547842 5.485974363117124 -0.001049498027298993 5.440546508402072 0.00012784979661204163 L 5.324211214933746 0.0036598932683445753 L 5.324211214933746 0.6080169668026741 C 5.324211214933746 0.6080169668026741 5.451120424707385 0.6080169668026741 5.451120424707385 0.6080169668026741 C 5.509876745353504 0.6123265041203858 5.578029634481025 0.6937856450690877 5.578029634481025 0.9095957226029409 Z" fill="#003049" transform="matrix(1,0,0,1,0,0)" fill-rule="nonzero"></path></g><g clip-path="url(#SvgjsClipPath10002dcb6d8a-a99c-4175-a5f5-f473b7a648fd)"><path d=" M 1.2835534832715978 0.7807538852692971 L 1.2835534832715978 3.934357780999193 L 5.134591572954438 3.934357780999193 L 5.134591572954438 0.7807538852692971 L 1.2835534832715978 0.7807538852692971 Z M 2.4895130807145027 2.034629317734387 L 2.0773302717962685 2.3576446895737857 L 2.4895130807145027 2.6806600614131852 L 2.4895130807145027 3.0880446225962355 L 1.5570313900671988 2.3576669036836715 L 2.4895130807145027 1.6276001823094988 L 2.4895130807145027 2.0346515318442724 Z M 3.0665023708703756 3.1495110646483373 L 2.7214506020249467 3.1495110646483373 L 3.3516426853556602 1.5655783875102682 L 3.696716668310974 1.5655783875102682 L 3.0665023708703756 3.1495110646483373 Z M 3.928631975511533 3.0880224084863497 L 3.928631975511533 2.6806378473032986 L 4.340814784429767 2.3576224754639 L 3.928631975511533 2.034607103624501 L 3.928631975511533 1.627555754089727 L 4.861113666158836 2.3576224754638995 L 3.928631975511533 3.0880001943764634 Z" fill="#f0591a" transform="matrix(1,0,0,1,0,0)" fill-rule="nonzero"></path></g></g><g><path d=" M -1.3020312181785147 2.3781066022093227 A 4.511103746291533 4.511103746291533 0 0 1 7.720176274404551 2.3781066022093227 A 4.511103746291533 4.511103746291533 0 0 1 -1.3020312181785147 2.3781066022093227 Z M -1.252031218178515 2.378106602209322 A 4.461103746291532 4.461103746291532 0 0 0 7.670176274404549 2.378106602209322 A 4.461103746291532 4.461103746291532 0 0 0 -1.252031218178515 2.378106602209322 Z" fill="#003049" fill-rule="nonzero"></path></g><g transform="matrix(-0.5822043306108589,-0.8130425065259268,0.8130425065259268,-0.5822043306108589,-6.142573284342012,6.015066340107337)"><g clip-path="url(#SvgjsClipPath1002)"><path d=" M -1.5258147585892972 4.769505286298634 C -1.514455164711642 4.769505286298634 -1.508684072499642 4.761752368606082 -1.4980466344906764 4.747686741800013 L -1.3913009185708145 4.605058906154634 C -1.3855298263588143 4.597484475850083 -1.382825845009573 4.590273175059048 -1.382825845009573 4.5825182057873235 C -1.382825845009573 4.574765288094772 -1.3855298263588143 4.567551935724564 -1.3913009185708145 4.559979556999186 L -1.4980466344906764 4.41735069556422 C -1.508684072499642 4.4032862997056545 -1.514455164711642 4.395532766539351 -1.5258147585892972 4.395532766539351 C -1.5373548914341248 4.395532766539351 -1.5431259836461249 4.4032862997056545 -1.5537634216550902 4.41735069556422 L -1.660509753048704 4.559979556999186 C -1.666279819471118 4.567551935724564 -1.668984621452028 4.574765288094772 -1.668984621452028 4.5825182057873235 C -1.668984621452028 4.590273175059048 -1.666279819471118 4.597484475850083 -1.660509753048704 4.605058906154634 L -1.5537634216550902 4.747686741800013 C -1.5431259836461249 4.761752368606082 -1.5373548914341248 4.769505286298634 -1.5258147585892972 4.769505286298634 Z" fill="#f0591a" transform="matrix(1,0,0,1,0,0)" fill-rule="nonzero"></path></g></g><g transform="matrix(0.5822043306108589,-0.8130425065259268,-0.8130425065259268,-0.5822043306108589,7.047374574023274,13.714395595503728)"><g clip-path="url(#SvgjsClipPath1003)"><path d=" M 7.943959814815333 4.769505286298634 C 7.955319408692988 4.769505286298634 7.961090500904988 4.761752368606082 7.971727938913953 4.747686741800013 L 8.078473654833816 4.605058906154634 C 8.084244747045815 4.597484475850083 8.086948728395058 4.590273175059048 8.086948728395058 4.5825182057873235 C 8.086948728395058 4.574765288094772 8.084244747045815 4.567551935724564 8.078473654833816 4.559979556999186 L 7.971727938913953 4.41735069556422 C 7.961090500904988 4.4032862997056545 7.955319408692988 4.395532766539351 7.943959814815333 4.395532766539351 C 7.932419681970505 4.395532766539351 7.926648589758505 4.4032862997056545 7.91601115174954 4.41735069556422 L 7.809264820355926 4.559979556999186 C 7.803494753933513 4.567551935724564 7.800789951952602 4.574765288094772 7.800789951952602 4.5825182057873235 C 7.800789951952602 4.590273175059048 7.803494753933513 4.597484475850083 7.809264820355926 4.605058906154634 L 7.91601115174954 4.747686741800013 C 7.926648589758505 4.761752368606082 7.932419681970505 4.769505286298634 7.943959814815333 4.769505286298634 Z" fill="#f0591a" transform="matrix(1,0,0,1,0,0)" fill-rule="nonzero"></path></g></g></g><defs><clipPath id="SvgjsClipPath1001"><path d=" M 0 0 h 6.418145056226036 v 4.756213204418645 h -6.418145056226036 Z"></path></clipPath><clipPath id="SvgjsClipPath10002dcb6d8a-a99c-4175-a5f5-f473b7a648fd"><path d=" M 0 2.850228966722507e-16 L 6.418145056226036 2.850228966722507e-16 L 6.418145056226036 4.756213204418645 L 0 4.756213204418645 Z"></path></clipPath><clipPath id="SvgjsClipPath1002"><path d=" M -1.8130358427272282 4.2882868756172545 h 0.574442168275862 v 0.59495796 h -0.574442168275862 Z"></path></clipPath><clipPath id="SvgjsClipPath1003"><path d=" M 7.656738730677402 4.2882868756172545 h 0.574442168275862 v 0.59495796 h -0.574442168275862 Z"></path></clipPath></defs></svg>